<svg xmlns="http://www.w3.org/2000/svg" viewBox="0 0 512 512">
    <path fill="#ff9800" d="M256 0C114.6 0 0 114.6 0 256s114.6 256 256 256s256-114.6 256-256S397.4 0 256 0zM80.72 256h35.75c8.453 52.5 47.34 95.31 98.06 109.2L184.9 400.9c-36.06-11.22-65.72-35.31-84.19-66.56c-1.438-2.406-2.797-4.875-4.109-7.375C75.11 295.7 60.55 257.9 65.06 216.7C69.55 175.6 90.22 138.5 122.6 113.1l36.91 36.91c-26.25 16.28-44.94 44.52-48.22 77.97H80.72zM256 400c-18.06 0-34.88-5.469-49-14.62l28.59-34.84c6.438 2.094 13.25 3.469 20.41 3.469c7.156 0 13.97-1.375 20.41-3.469l28.59 34.84C290.9 394.5 274.1 400 256 400zM256 320c-35.38 0-64-28.62-64-64s28.62-64 64-64s64 28.62 64 64S291.4 320 256 320zM431.2 326.1c-1.312 2.5-2.672 4.969-4.109 7.375c-18.48 31.25-48.14 55.34-84.19 66.56l-29.64-35.75c50.72-13.88 89.61-56.63 98.06-109.1h35.75c5.359 40.01-5.542 78.7-15.88 110.3L431.2 326.1zM389.3 111.9c32.38 25.39 53.05 62.54 57.55 103.7c4.508 41.25-10.05 79.05-31.55 109.3l-1.982 3.375h-24.75c3.461-8.949 6.045-18.25 7.635-27.97c6.053-37.44-1.688-76.09-21.83-107.6l33.43-33.43l-22.62-22.62l-33.44 33.44c-31.42-20.04-69.32-28.21-107.6-21.83C226.5 150.8 217.2 153.4 208.3 156.8V132.1l3.375-1.982c30.21-21.5 67.92-36.05 109.1-31.55C362.4 103.1 399.6 123.8 425 156.2L389.3 111.9z"/>
</svg> 